<?xml version="1.0" encoding="UTF-8" standalone="no"?>
<!-- Created with Inkscape (http://www.inkscape.org/) -->

<svg
   xmlns:dc="http://purl.org/dc/elements/1.1/"
   xmlns:cc="http://creativecommons.org/ns#"
   xmlns:rdf="http://www.w3.org/1999/02/22-rdf-syntax-ns#"
   xmlns:svg="http://www.w3.org/2000/svg"
   xmlns="http://www.w3.org/2000/svg"
   xmlns:sodipodi="http://sodipodi.sourceforge.net/DTD/sodipodi-0.dtd"
   xmlns:inkscape="http://www.inkscape.org/namespaces/inkscape"
   width="744.09448819"
   height="1052.3622047"
   id="svg4423"
   version="1.1"
   inkscape:version="0.48.1 r9760"
   sodipodi:docname="10H.svg">
  <sodipodi:namedview
     id="base"
     pagecolor="#ffffff"
     bordercolor="#666666"
     borderopacity="1.0"
     inkscape:pageopacity="0.0"
     inkscape:pageshadow="2"
     inkscape:zoom="0.69999999"
     inkscape:cx="126.73995"
     inkscape:cy="451.52252"
     inkscape:document-units="px"
     inkscape:current-layer="layer1"
     showgrid="false"
     inkscape:snap-global="true"
     inkscape:snap-bbox="true"
     inkscape:snap-page="true"
     inkscape:window-width="735"
     inkscape:window-height="925"
     inkscape:window-x="705"
     inkscape:window-y="60"
     inkscape:window-maximized="0" />
  <defs
     id="defs4425" />
  <metadata
     id="metadata4428">
    <rdf:RDF>
      <cc:Work
         rdf:about="">
        <dc:format>image/svg+xml</dc:format>
        <dc:type
           rdf:resource="http://purl.org/dc/dcmitype/StillImage" />
        <dc:title />
      </cc:Work>
    </rdf:RDF>
  </metadata>
  <g
     id="layer1"
     inkscape:groupmode="layer"
     inkscape:label="10H">
    <g
       transform="translate(-1760.0774,-113.66123)"
       id="g8970"
       style="display:inline">
      <g
         id="g8891">
        <g
           transform="translate(-4683.8753,2918.9368)"
           id="g8795">
          <rect
             ry="10.629921"
             rx="10.629921"
             style="fill:#ffffff;fill-opacity:1;stroke:#000000;stroke-width:0.99673343;stroke-miterlimit:4;stroke-opacity:1;stroke-dasharray:none;display:inline"
             id="rect6365"
             width="223.22835"
             height="311.81104"
             x="6704.3857"
             y="-2435" />
          <g
             id="g8612"
             transform="matrix(0.30106207,0,0,0.30106207,5267.5599,-1982.7028)">
            <path
               sodipodi:nodetypes="ccccc"
               inkscape:connector-curvature="0"
               id="path7216"
               d="m 4797.8616,-1351.7241 0,-104.6518 10.3328,0 0,104.6518 z"
               style="fill:#d40000;fill-opacity:1;display:inline" />
            <path
               inkscape:connector-curvature="0"
               id="rect7235"
               d="m 4838.815,-1456.3759 c -9.9454,0 -17.9408,8.9238 -17.9408,20.0041 l 0,64.6435 c 0,11.0803 7.9954,20.0042 17.9408,20.0042 l 5.7965,0 c 9.9453,0 17.9565,-8.9239 17.9565,-20.0042 l 0,-64.6435 c 0,-11.0803 -8.0112,-20.0041 -17.9565,-20.0041 l -5.7965,0 z m 2.9927,9.8918 c 5.8743,0 10.6007,4.4408 10.6007,9.9706 l 0,65.5097 c 0,5.5298 -4.7264,9.9864 -10.6007,9.9864 -5.8742,0 -10.6006,-4.4566 -10.6006,-9.9864 l 0,-65.5097 c 0,-5.5298 4.7264,-9.9706 10.6006,-9.9706 z"
               style="fill:#d40000;fill-opacity:1;stroke:none;display:inline" />
            <g
               style="fill:#f60302;fill-opacity:1;display:inline"
               id="g7984"
               transform="matrix(-0.50404239,0,0,-0.50404239,7403.6384,312.07817)">
              <path
                 sodipodi:nodetypes="ccccc"
                 inkscape:connector-curvature="0"
                 id="path7986"
                 d="m 3799.25,1843.75 0,-207.625 20.5,0 0,207.625 z"
                 style="fill:#d40000;fill-opacity:1;display:inline" />
              <path
                 inkscape:connector-curvature="0"
                 id="path7988"
                 d="m 3880.5,1636.125 c -19.7312,0 -35.5938,17.7045 -35.5938,39.6875 l 0,128.25 c 0,21.983 15.8626,39.6875 35.5938,39.6875 l 11.5,0 c 19.7312,0 35.625,-17.7045 35.625,-39.6875 l 0,-128.25 c 0,-21.983 -15.8938,-39.6875 -35.625,-39.6875 l -11.5,0 z m 5.9375,19.625 c 11.6542,0 21.0313,8.8104 21.0313,19.7812 l 0,129.9688 c 0,10.9708 -9.3771,19.8125 -21.0313,19.8125 -11.6542,0 -21.0313,-8.8417 -21.0313,-19.8125 l 0,-129.9688 c 0,-10.9708 9.3771,-19.7812 21.0313,-19.7812 z"
                 style="fill:#d40000;fill-opacity:1;stroke:none" />
            </g>
          </g>
        </g>
      </g>
      <path
         style="fill:#d40000;fill-opacity:1;display:inline"
         d="m 2029.0346,544.07627 c -1.583,-3.47229 -1.7567,-9.4054 2.9711,-10.20801 3.5621,-0.45844 5.0117,1.1983 5.2999,3.74186 0.1422,0.74302 0.5617,0.7885 0.6948,-0.0583 0.2044,-2.60939 2.7872,-4.1326 4.8064,-3.74997 5.5266,0.9454 5.2039,7.02845 3.3985,11.15554 -2.7309,5.47946 -5.6006,8.93761 -8.245,14.45186 -3.0382,-5.74101 -6.5073,-10.4051 -8.9257,-15.33294 z"
         id="path8644"
         inkscape:connector-curvature="0"
         sodipodi:nodetypes="cccccccc" />
      <path
         sodipodi:nodetypes="ccccsccssc"
         inkscape:connector-curvature="0"
         id="path8568"
         d="m 2063.5371,512.25999 c 7.144,-0.4744 10.8684,5.62741 11.5952,10.43645 0.4334,0.76389 0.6707,0.54864 0.8369,-0.0423 0.3493,-6.17414 5.8749,-11.22017 10.9926,-10.53018 8.328,0.10829 13.3895,9.3754 11.9664,17.21876 -1.7385,9.58159 -6.8997,15.35109 -10.8078,21.29311 -4.4213,6.15238 -10.3727,15.0395 -12.2901,19.31683 0,0 -6.0483,-9.20452 -13.9172,-20.02959 -5.2618,-7.23851 -9.4731,-15.08233 -9.8651,-21.83538 -0.4479,-7.71548 2.7193,-14.63175 11.4891,-15.82765 z"
         style="fill:#d40000;fill-opacity:1;display:inline" />
      <path
         sodipodi:nodetypes="ccccsccssc"
         inkscape:connector-curvature="0"
         id="path8570"
         d="m 2119.7203,544.92528 c 7.144,-0.4744 10.8684,5.62741 11.5952,10.43645 0.4334,0.76389 0.6707,0.54864 0.8369,-0.0423 0.3493,-6.17414 5.8749,-11.22017 10.9926,-10.53018 8.328,0.10829 13.3895,9.3754 11.9664,17.21876 -1.7385,9.58159 -6.8997,15.35109 -10.8078,21.29311 -4.4213,6.15238 -10.3727,15.0395 -12.2901,19.31683 0,0 -6.0483,-9.20452 -13.9172,-20.02959 -5.2618,-7.23851 -9.4731,-15.08233 -9.8651,-21.83538 -0.4479,-7.71548 2.7193,-14.63175 11.4891,-15.82765 z"
         style="fill:#d40000;fill-opacity:1;display:inline" />
      <path
         sodipodi:nodetypes="ccccsccssc"
         inkscape:connector-curvature="0"
         id="path8572"
         d="m 2175.0699,512.25999 c 7.144,-0.4744 10.8684,5.62741 11.5952,10.43645 0.4334,0.76389 0.6707,0.54864 0.8369,-0.0423 0.3493,-6.17414 5.8749,-11.22017 10.9926,-10.53018 8.328,0.10829 13.3895,9.3754 11.9664,17.21876 -1.7385,9.58159 -6.8997,15.35109 -10.8078,21.29311 -4.4213,6.15238 -10.3727,15.0395 -12.2901,19.31683 0,0 -6.0483,-9.20452 -13.9172,-20.02959 -5.2618,-7.23851 -9.4731,-15.08233 -9.8651,-21.83538 -0.4479,-7.71548 2.7193,-14.63175 11.4891,-15.82765 z"
         style="fill:#d40000;fill-opacity:1;display:inline" />
      <path
         sodipodi:nodetypes="ccccsccssc"
         inkscape:connector-curvature="0"
         id="path8574"
         d="m 2175.0699,577.59058 c 7.144,-0.4744 10.8684,5.62741 11.5952,10.43645 0.4334,0.76389 0.6707,0.54864 0.8369,-0.0423 0.3493,-6.17414 5.8749,-11.22017 10.9926,-10.53018 8.328,0.10829 13.3895,9.3754 11.9664,17.21876 -1.7385,9.58159 -6.8997,15.35109 -10.8078,21.29311 -4.4213,6.15238 -10.3727,15.0395 -12.2901,19.31683 0,0 -6.0483,-9.20452 -13.9172,-20.02959 -5.2618,-7.23851 -9.4731,-15.08233 -9.8651,-21.83538 -0.4479,-7.71548 2.7193,-14.63175 11.4891,-15.82765 z"
         style="fill:#d40000;fill-opacity:1;display:inline" />
      <path
         sodipodi:nodetypes="ccccsccssc"
         inkscape:connector-curvature="0"
         id="path8576"
         d="m 2063.5371,577.59058 c 7.144,-0.4744 10.8684,5.62741 11.5952,10.43645 0.4334,0.76389 0.6707,0.54864 0.8369,-0.0423 0.3493,-6.17414 5.8749,-11.22017 10.9926,-10.53018 8.328,0.10829 13.3895,9.3754 11.9664,17.21876 -1.7385,9.58159 -6.8997,15.35109 -10.8078,21.29311 -4.4213,6.15238 -10.3727,15.0395 -12.2901,19.31683 0,0 -6.0483,-9.20452 -13.9172,-20.02959 -5.2618,-7.23851 -9.4731,-15.08233 -9.8651,-21.83538 -0.4479,-7.71548 2.7193,-14.63175 11.4891,-15.82765 z"
         style="fill:#d40000;fill-opacity:1;display:inline" />
      <path
         sodipodi:nodetypes="ccccsccssc"
         inkscape:connector-curvature="0"
         id="path8596"
         d="m 2175.0699,701.98082 c 7.144,0.4744 10.8684,-5.62741 11.5952,-10.43645 0.4334,-0.76389 0.6707,-0.54864 0.8369,0.0423 0.3493,6.17414 5.8749,11.22017 10.9926,10.53018 8.328,-0.10829 13.3895,-9.3754 11.9664,-17.21876 -1.7385,-9.58159 -6.8997,-15.35109 -10.8078,-21.29311 -4.4213,-6.15238 -10.3727,-15.0395 -12.2901,-19.31683 0,0 -6.0483,9.20452 -13.9172,20.02959 -5.2618,7.23851 -9.4731,15.08233 -9.8651,21.83538 -0.4479,7.71548 2.7193,14.63175 11.4891,15.82765 z"
         style="fill:#d40000;fill-opacity:1;display:inline" />
      <path
         sodipodi:nodetypes="ccccsccssc"
         inkscape:connector-curvature="0"
         id="path8598"
         d="m 2175.0699,767.08626 c 7.144,0.4744 10.8684,-5.62741 11.5952,-10.43645 0.4334,-0.76389 0.6707,-0.54864 0.8369,0.0423 0.3493,6.17414 5.8749,11.22017 10.9926,10.53018 8.328,-0.10829 13.3895,-9.3754 11.9664,-17.21876 -1.7385,-9.58159 -6.8997,-15.35109 -10.8078,-21.29311 -4.4213,-6.15238 -10.3727,-15.0395 -12.2901,-19.31683 0,0 -6.0483,9.20452 -13.9172,20.02959 -5.2618,7.23851 -9.4731,15.08233 -9.8651,21.83538 -0.4479,7.71548 2.7193,14.63175 11.4891,15.82765 z"
         style="fill:#d40000;fill-opacity:1;display:inline" />
      <path
         sodipodi:nodetypes="ccccsccssc"
         inkscape:connector-curvature="0"
         id="path8600"
         d="m 2119.2527,734.53354 c 7.144,0.4744 10.8684,-5.62741 11.5952,-10.43645 0.4334,-0.76389 0.6707,-0.54864 0.8369,0.0423 0.3493,6.17414 5.8749,11.22017 10.9926,10.53018 8.328,-0.10829 13.3895,-9.3754 11.9664,-17.21876 -1.7385,-9.58159 -6.8997,-15.35109 -10.8078,-21.29311 -4.4213,-6.15238 -10.3727,-15.0395 -12.2901,-19.31683 0,0 -6.0483,9.20452 -13.9172,20.02959 -5.2618,7.23851 -9.4731,15.08233 -9.8651,21.83538 -0.4479,7.71548 2.7193,14.63175 11.4891,15.82765 z"
         style="fill:#d40000;fill-opacity:1;display:inline" />
      <path
         sodipodi:nodetypes="ccccsccssc"
         inkscape:connector-curvature="0"
         id="path8602"
         d="m 2063.5371,701.98082 c 7.144,0.4744 10.8684,-5.62741 11.5952,-10.43645 0.4334,-0.76389 0.6707,-0.54864 0.8369,0.0423 0.3493,6.17414 5.8749,11.22017 10.9926,10.53018 8.328,-0.10829 13.3895,-9.3754 11.9664,-17.21876 -1.7385,-9.58159 -6.8997,-15.35109 -10.8078,-21.29311 -4.4213,-6.15238 -10.3727,-15.0395 -12.2901,-19.31683 0,0 -6.0483,9.20452 -13.9172,20.02959 -5.2618,7.23851 -9.4731,15.08233 -9.8651,21.83538 -0.4479,7.71548 2.7193,14.63175 11.4891,15.82765 z"
         style="fill:#d40000;fill-opacity:1;display:inline" />
      <path
         sodipodi:nodetypes="ccccsccssc"
         inkscape:connector-curvature="0"
         id="path8604"
         d="m 2063.5371,767.08626 c 7.144,0.4744 10.8684,-5.62741 11.5952,-10.43645 0.4334,-0.76389 0.6707,-0.54864 0.8369,0.0423 0.3493,6.17414 5.8749,11.22017 10.9926,10.53018 8.328,-0.10829 13.3895,-9.3754 11.9664,-17.21876 -1.7385,-9.58159 -6.8997,-15.35109 -10.8078,-21.29311 -4.4213,-6.15238 -10.3727,-15.0395 -12.2901,-19.31683 0,0 -6.0483,9.20452 -13.9172,20.02959 -5.2618,7.23851 -9.4731,15.08233 -9.8651,21.83538 -0.4479,7.71548 2.7193,14.63175 11.4891,15.82765 z"
         style="fill:#d40000;fill-opacity:1;display:inline" />
      <path
         sodipodi:nodetypes="cccccccc"
         inkscape:connector-curvature="0"
         id="path8660"
         d="m 2217.8498,734.93395 c -1.583,3.47229 -1.7567,9.4054 2.9711,10.20801 3.5621,0.45844 5.0117,-1.1983 5.2999,-3.74186 0.1422,-0.74302 0.5617,-0.7885 0.6948,0.0583 0.2044,2.60939 2.7872,4.1326 4.8064,3.74997 5.5266,-0.9454 5.2039,-7.02845 3.3985,-11.15554 -2.7309,-5.47946 -5.6006,-8.93761 -8.245,-14.45186 -3.0382,5.74101 -6.5073,10.4051 -8.9257,15.33294 z"
         style="fill:#d40000;fill-opacity:1;display:inline" />
    </g>
  </g>
</svg>
