<?xml version="1.0" encoding="UTF-8" standalone="no"?>
<!-- Created with Inkscape (http://www.inkscape.org/) -->

<svg
   xmlns:dc="http://purl.org/dc/elements/1.1/"
   xmlns:cc="http://creativecommons.org/ns#"
   xmlns:rdf="http://www.w3.org/1999/02/22-rdf-syntax-ns#"
   xmlns:svg="http://www.w3.org/2000/svg"
   xmlns="http://www.w3.org/2000/svg"
   xmlns:sodipodi="http://sodipodi.sourceforge.net/DTD/sodipodi-0.dtd"
   xmlns:inkscape="http://www.inkscape.org/namespaces/inkscape"
   width="744.09448819"
   height="1052.3622047"
   id="svg4423"
   version="1.1"
   inkscape:version="0.48.1 r9760"
   sodipodi:docname="3H.svg">
  <sodipodi:namedview
     id="base"
     pagecolor="#ffffff"
     bordercolor="#666666"
     borderopacity="1.0"
     inkscape:pageopacity="0.0"
     inkscape:pageshadow="2"
     inkscape:zoom="0.98994948"
     inkscape:cx="190.96525"
     inkscape:cy="436.29345"
     inkscape:document-units="px"
     inkscape:current-layer="layer1"
     showgrid="false"
     inkscape:snap-global="true"
     inkscape:snap-bbox="true"
     inkscape:snap-page="true"
     inkscape:window-width="735"
     inkscape:window-height="925"
     inkscape:window-x="1078"
     inkscape:window-y="117"
     inkscape:window-maximized="0" />
  <defs
     id="defs4425" />
  <metadata
     id="metadata4428">
    <rdf:RDF>
      <cc:Work
         rdf:about="">
        <dc:format>image/svg+xml</dc:format>
        <dc:type
           rdf:resource="http://purl.org/dc/dcmitype/StillImage" />
        <dc:title />
      </cc:Work>
    </rdf:RDF>
  </metadata>
  <g
     id="layer1"
     inkscape:groupmode="layer"
     inkscape:label="3H"
     sodipodi:insensitive="true">
    <g
       transform="translate(-1536.8493,198.14981)"
       id="g8912"
       style="display:inline">
      <g
         id="g8784">
        <g
           transform="translate(-4683.8753,2918.9368)"
           id="g8890">
          <rect
             ry="10.629921"
             rx="10.629921"
             style="fill:#ffffff;fill-opacity:1;stroke:#000000;stroke-width:0.99673343;stroke-miterlimit:4;stroke-opacity:1;stroke-dasharray:none;display:inline"
             id="rect6351"
             width="223.22835"
             height="311.81104"
             x="6481.1577"
             y="-2746.811" />
          <g
             id="g8582"
             transform="matrix(0.30106207,0,0,0.30106207,5635.595,-1948.9541)">
            <path
               style="fill:#d40000;fill-opacity:1;display:inline"
               d="m 2836.6637,-2519.8906 8.4607,-6.1116 c 7.3538,11.7376 15.5625,19.4745 28.1181,18.1437 18.8453,-1.2674 26.6487,-20.6606 22.7039,-35.2849 -3.8092,-13.103 -19.417,-19.4954 -31.8153,-12.4982 -2.9236,1.65 -6.3052,3.6875 -6.3052,3.6875 l -4.4137,-7.1942 29.1094,-33.8631 -31.5895,0 0,14.0158 -12.1218,0 0,-25.1275 61.7456,0 0,8.5286 c 0,0 -16.5384,16.8366 -22.0128,26.0657 13.4691,0.4898 24.3232,8.8645 28.2078,22.1159 2.2798,6.97 1.255,22.9224 -1.7164,29.7878 -4.9614,11.4634 -18.5478,20.7594 -30.9625,21.2965 -20.8281,1.3757 -31.8931,-12.9608 -37.4083,-23.562 z"
               id="path7102"
               inkscape:connector-curvature="0"
               sodipodi:nodetypes="ccccscccccccccccscc" />
            <path
               sodipodi:nodetypes="ccccscccccccccccscc"
               inkscape:connector-curvature="0"
               id="path7118"
               d="m 3522.0047,-1744.6882 -8.4607,6.1116 c -7.3538,-11.7376 -15.5625,-19.4745 -28.1181,-18.1437 -18.8453,1.2674 -26.6487,20.6606 -22.7039,35.2849 3.8092,13.103 19.417,19.4954 31.8153,12.4982 2.9236,-1.65 6.3052,-3.375 6.3052,-3.375 l 5.2262,6.7567 -29.9219,33.9881 31.5895,0 0,-14.0158 12.1218,0 0,25.1275 -61.7456,0 0,-8.5286 c 0,0 16.5384,-16.8366 22.0128,-26.0657 -13.4691,-0.4898 -24.3232,-8.8645 -28.2078,-22.1159 -2.2798,-6.97 -1.255,-22.9224 1.7164,-29.7878 4.9614,-11.4634 18.5478,-20.7594 30.9625,-21.2965 20.8281,-1.3757 31.8931,12.9608 37.4083,23.562 z"
               style="fill:#d40000;fill-opacity:1;display:inline" />
          </g>
        </g>
      </g>
      <path
         style="fill:#d40000;fill-opacity:1;display:inline"
         d="m 1807.0252,232.7902 c -1.583,-3.47229 -1.7567,-9.4054 2.9711,-10.20801 3.5621,-0.45844 5.0117,1.1983 5.2999,3.74186 0.1422,0.74302 0.5617,0.7885 0.6948,-0.0583 0.2044,-2.60939 2.7872,-4.1326 4.8064,-3.74997 5.5266,0.9454 5.2039,7.02845 3.3985,11.15554 -2.7309,5.47946 -5.6006,8.93761 -8.245,14.45186 -3.0382,-5.74101 -6.5073,-10.4051 -8.9257,-15.33294 z"
         id="path8630"
         inkscape:connector-curvature="0"
         sodipodi:nodetypes="cccccccc" />
      <path
         sodipodi:nodetypes="ccccsccssc"
         inkscape:connector-curvature="0"
         id="path8516"
         d="m 1896.7834,200.86277 c 7.144,-0.4744 10.8684,5.62741 11.5952,10.43645 0.4334,0.76389 0.6707,0.54864 0.8369,-0.0423 0.3493,-6.17414 5.8749,-11.22017 10.9926,-10.53018 8.328,0.10829 13.3895,9.3754 11.9664,17.21876 -1.7385,9.58159 -6.8997,15.35109 -10.8078,21.29311 -4.4213,6.15238 -10.3727,15.0395 -12.2901,19.31683 0,0 -6.0483,-9.20452 -13.9172,-20.02959 -5.2618,-7.23851 -9.4731,-15.08233 -9.8651,-21.83538 -0.4479,-7.71548 2.7193,-14.63175 11.4891,-15.82765 z"
         style="fill:#d40000;fill-opacity:1;display:inline" />
      <path
         sodipodi:nodetypes="ccccsccssc"
         inkscape:connector-curvature="0"
         id="path8518"
         d="m 1896.8468,299.28461 c 7.144,-0.4744 10.8684,5.62741 11.5952,10.43645 0.4334,0.76389 0.6707,0.54864 0.8369,-0.0423 0.3493,-6.17414 5.8749,-11.22017 10.9926,-10.53018 8.328,0.10829 13.3895,9.3754 11.9664,17.21876 -1.7385,9.58159 -6.8997,15.35109 -10.8078,21.29311 -4.4213,6.15238 -10.3727,15.0395 -12.2901,19.31683 0,0 -6.0483,-9.20452 -13.9172,-20.02959 -5.2618,-7.23851 -9.4731,-15.08233 -9.8651,-21.83538 -0.4479,-7.71548 2.7193,-14.63175 11.4891,-15.82765 z"
         style="fill:#d40000;fill-opacity:1;display:inline" />
      <path
         sodipodi:nodetypes="cccccccc"
         inkscape:connector-curvature="0"
         id="path8652"
         d="m 1994.012,424.00217 c -1.583,3.47229 -1.7567,9.4054 2.9711,10.20801 3.5621,0.45844 5.0117,-1.1983 5.2999,-3.74186 0.1422,-0.74302 0.5617,-0.7885 0.6948,0.0583 0.2044,2.60939 2.7872,4.1326 4.8064,3.74997 5.5266,-0.9454 5.2039,-7.02845 3.3985,-11.15554 -2.7309,-5.47946 -5.6006,-8.93761 -8.245,-14.45186 -3.0382,5.74101 -6.5073,10.4051 -8.9257,15.33294 z"
         style="fill:#d40000;fill-opacity:1;display:inline" />
      <path
         sodipodi:nodetypes="ccccsccssc"
         inkscape:connector-curvature="0"
         id="path8582"
         d="m 1896.7834,455.45911 c 7.144,0.4744 10.8684,-5.62741 11.5952,-10.43645 0.4334,-0.76389 0.6707,-0.54864 0.8369,0.0423 0.3493,6.17414 5.8749,11.22017 10.9926,10.53018 8.328,-0.10829 13.3895,-9.3754 11.9664,-17.21876 -1.7385,-9.58159 -6.8997,-15.35109 -10.8078,-21.29311 -4.4213,-6.15238 -10.3727,-15.0395 -12.2901,-19.31683 0,0 -6.0483,9.20452 -13.9172,20.02959 -5.2618,7.23851 -9.4731,15.08233 -9.8651,21.83538 -0.4479,7.71548 2.7193,14.63175 11.4891,15.82765 z"
         style="fill:#d40000;fill-opacity:1;display:inline" />
    </g>
  </g>
</svg>
