<?xml version="1.0" encoding="UTF-8" standalone="no"?>
<!-- Created with Inkscape (http://www.inkscape.org/) -->

<svg
   xmlns:dc="http://purl.org/dc/elements/1.1/"
   xmlns:cc="http://creativecommons.org/ns#"
   xmlns:rdf="http://www.w3.org/1999/02/22-rdf-syntax-ns#"
   xmlns:svg="http://www.w3.org/2000/svg"
   xmlns="http://www.w3.org/2000/svg"
   xmlns:sodipodi="http://sodipodi.sourceforge.net/DTD/sodipodi-0.dtd"
   xmlns:inkscape="http://www.inkscape.org/namespaces/inkscape"
   width="744.09448819"
   height="1052.3622047"
   id="svg4423"
   version="1.1"
   inkscape:version="0.48.1 r9760"
   sodipodi:docname="5H.svg">
  <sodipodi:namedview
     id="base"
     pagecolor="#ffffff"
     bordercolor="#666666"
     borderopacity="1.0"
     inkscape:pageopacity="0.0"
     inkscape:pageshadow="2"
     inkscape:zoom="0.98994948"
     inkscape:cx="199.26695"
     inkscape:cy="514.96342"
     inkscape:document-units="px"
     inkscape:current-layer="layer1"
     showgrid="false"
     inkscape:snap-global="true"
     inkscape:snap-bbox="true"
     inkscape:snap-page="true"
     inkscape:window-width="735"
     inkscape:window-height="925"
     inkscape:window-x="578"
     inkscape:window-y="17"
     inkscape:window-maximized="0" />
  <defs
     id="defs4425" />
  <metadata
     id="metadata4428">
    <rdf:RDF>
      <cc:Work
         rdf:about="">
        <dc:format>image/svg+xml</dc:format>
        <dc:type
           rdf:resource="http://purl.org/dc/dcmitype/StillImage" />
        <dc:title />
      </cc:Work>
    </rdf:RDF>
  </metadata>
  <g
     id="layer1"
     inkscape:groupmode="layer"
     inkscape:label="5H">
    <g
       transform="translate(-1983.3059,198.14981)"
       id="g8939"
       style="display:inline">
      <g
         id="g8809">
        <g
           transform="translate(-4683.8753,2918.9368)"
           id="g8915">
          <rect
             ry="10.629921"
             rx="10.629921"
             style="fill:#ffffff;fill-opacity:1;stroke:#000000;stroke-width:0.99673343;stroke-miterlimit:4;stroke-opacity:1;stroke-dasharray:none;display:inline"
             id="rect6355"
             width="223.22835"
             height="311.81104"
             x="6927.6143"
             y="-2746.811" />
          <g
             id="g8601"
             transform="matrix(0.30106207,0,0,0.30106207,5562.5812,-1947.8121)">
            <path
               style="fill:#d40000;fill-opacity:1;display:inline"
               d="m 4561.2262,-2529.2496 10.6958,-0.094 c 2.034,6.4574 6.5502,13.0412 12.6783,14.8589 17.3116,4.0652 28.4573,-5.6046 32.1281,-16.7626 4.4514,-13.5306 -0.1008,-32.5364 -12.0159,-39.2867 -9.8838,-5.5995 -24.5629,-0.877 -31.296,11.0892 l -7.4975,-4.5831 4.0237,-44.5815 48.9286,0 0,10.5356 -39.6521,0 -0.6221,18.5714 c 8.5208,-5.9858 21.6503,-5.9276 30.1777,-1.7268 16.1588,7.7024 23.663,25.2198 20.5183,45.8727 -4.3527,20.5381 -13.942,32.1745 -35.599,33.8468 -24.0636,0.2079 -32.5637,-16.3356 -32.4679,-27.7394 z"
               id="path7106"
               inkscape:connector-curvature="0"
               sodipodi:nodetypes="cccssccccccccccc" />
            <path
               sodipodi:nodetypes="cccssccccccccccc"
               inkscape:connector-curvature="0"
               id="path7122"
               d="m 5248.3603,-1742.9152 -10.6958,0.094 c -2.034,-6.4574 -6.5502,-13.0412 -12.6783,-14.8589 -17.3116,-4.0652 -28.4573,5.6046 -32.1281,16.7626 -4.4514,13.5306 0.1008,32.5364 12.0159,39.2867 9.8838,5.5995 24.5629,0.877 31.296,-11.0892 l 7.4975,4.5831 -4.0237,44.5816 -48.9286,0 0,-10.5357 39.6521,0 0.6221,-18.5714 c -8.5208,5.9858 -21.6503,5.9276 -30.1777,1.7268 -16.1588,-7.7024 -23.663,-25.2198 -20.5183,-45.8727 4.3527,-20.5381 13.942,-32.1745 35.599,-33.8468 24.0636,-0.2079 32.5637,16.3356 32.4679,27.7394 z"
               style="fill:#d40000;fill-opacity:1;display:inline" />
          </g>
        </g>
      </g>
      <path
         style="fill:#d40000;fill-opacity:1;display:inline"
         d="m 2253.2506,232.72292 c -1.583,-3.47229 -1.7567,-9.4054 2.9711,-10.20801 3.5621,-0.45844 5.0117,1.1983 5.2999,3.74186 0.1422,0.74302 0.5617,0.7885 0.6948,-0.0583 0.2044,-2.60939 2.7872,-4.1326 4.8064,-3.74997 5.5266,0.9454 5.2039,7.02845 3.3985,11.15554 -2.7309,5.47946 -5.6006,8.93761 -8.245,14.45186 -3.0382,-5.74101 -6.5073,-10.4051 -8.9257,-15.33294 z"
         id="path8640"
         inkscape:connector-curvature="0"
         sodipodi:nodetypes="cccccccc" />
      <path
         sodipodi:nodetypes="ccccsccssc"
         inkscape:connector-curvature="0"
         id="path8524"
         d="m 2287.7943,200.04786 c 7.144,-0.4744 10.8684,5.62741 11.5952,10.43645 0.4334,0.76389 0.6707,0.54864 0.8369,-0.0423 0.3493,-6.17414 5.8749,-11.22017 10.9926,-10.53018 8.328,0.10829 13.3895,9.3754 11.9664,17.21876 -1.7385,9.58159 -6.8997,15.35109 -10.8078,21.29311 -4.4213,6.15238 -10.3727,15.0395 -12.2901,19.31683 0,0 -6.0483,-9.20452 -13.9172,-20.02959 -5.2618,-7.23851 -9.4731,-15.08233 -9.8651,-21.83538 -0.4479,-7.71548 2.7193,-14.63175 11.4891,-15.82765 z"
         style="fill:#d40000;fill-opacity:1;display:inline" />
      <path
         sodipodi:nodetypes="ccccsccssc"
         inkscape:connector-curvature="0"
         id="path8526"
         d="m 2398.4756,200.04786 c 7.144,-0.4744 10.8684,5.62741 11.5952,10.43645 0.4334,0.76389 0.6707,0.54864 0.8369,-0.0423 0.3493,-6.17414 5.8749,-11.22017 10.9926,-10.53018 8.328,0.10829 13.3895,9.3754 11.9664,17.21876 -1.7385,9.58159 -6.8997,15.35109 -10.8078,21.29311 -4.4213,6.15238 -10.3727,15.0395 -12.2901,19.31683 0,0 -6.0483,-9.20452 -13.9172,-20.02959 -5.2618,-7.23851 -9.4731,-15.08233 -9.8651,-21.83538 -0.4479,-7.71548 2.7193,-14.63175 11.4891,-15.82765 z"
         style="fill:#d40000;fill-opacity:1;display:inline" />
      <path
         sodipodi:nodetypes="ccccsccssc"
         inkscape:connector-curvature="0"
         id="path8528"
         d="m 2343.3034,299.28461 c 7.144,-0.4744 10.8684,5.62741 11.5952,10.43645 0.4334,0.76389 0.6707,0.54864 0.8369,-0.0423 0.3493,-6.17414 5.8749,-11.22017 10.9926,-10.53018 8.328,0.10829 13.3895,9.3754 11.9664,17.21876 -1.7385,9.58159 -6.8997,15.35109 -10.8078,21.29311 -4.4213,6.15238 -10.3727,15.0395 -12.2901,19.31683 0,0 -6.0483,-9.20452 -13.9172,-20.02959 -5.2618,-7.23851 -9.4731,-15.08233 -9.8651,-21.83538 -0.4479,-7.71548 2.7193,-14.63175 11.4891,-15.82765 z"
         style="fill:#d40000;fill-opacity:1;display:inline" />
      <path
         sodipodi:nodetypes="ccccsccssc"
         inkscape:connector-curvature="0"
         id="path8588"
         d="m 2287.7943,454.19264 c 7.144,0.4744 10.8684,-5.62741 11.5952,-10.43645 0.4334,-0.76389 0.6707,-0.54864 0.8369,0.0423 0.3493,6.17414 5.8749,11.22017 10.9926,10.53018 8.328,-0.10829 13.3895,-9.3754 11.9664,-17.21876 -1.7385,-9.58159 -6.8997,-15.35109 -10.8078,-21.29311 -4.4213,-6.15238 -10.3727,-15.0395 -12.2901,-19.31683 0,0 -6.0483,9.20452 -13.9172,20.02959 -5.2618,7.23851 -9.4731,15.08233 -9.8651,21.83538 -0.4479,7.71548 2.7193,14.63175 11.4891,15.82765 z"
         style="fill:#d40000;fill-opacity:1;display:inline" />
      <path
         sodipodi:nodetypes="ccccsccssc"
         inkscape:connector-curvature="0"
         id="path8590"
         d="m 2398.4756,454.19264 c 7.144,0.4744 10.8684,-5.62741 11.5952,-10.43645 0.4334,-0.76389 0.6707,-0.54864 0.8369,0.0423 0.3493,6.17414 5.8749,11.22017 10.9926,10.53018 8.328,-0.10829 13.3895,-9.3754 11.9664,-17.21876 -1.7385,-9.58159 -6.8997,-15.35109 -10.8078,-21.29311 -4.4213,-6.15238 -10.3727,-15.0395 -12.2901,-19.31683 0,0 -6.0483,9.20452 -13.9172,20.02959 -5.2618,7.23851 -9.4731,15.08233 -9.8651,21.83538 -0.4479,7.71548 2.7193,14.63175 11.4891,15.82765 z"
         style="fill:#d40000;fill-opacity:1;display:inline" />
      <path
         sodipodi:nodetypes="cccccccc"
         inkscape:connector-curvature="0"
         id="path8656"
         d="m 2439.9583,423.58061 c -1.583,3.47229 -1.7567,9.4054 2.9711,10.20801 3.5621,0.45844 5.0117,-1.1983 5.2999,-3.74186 0.1422,-0.74302 0.5617,-0.7885 0.6948,0.0583 0.2044,2.60939 2.7872,4.1326 4.8064,3.74997 5.5266,-0.9454 5.2039,-7.02845 3.3985,-11.15554 -2.7309,-5.47946 -5.6006,-8.93761 -8.245,-14.45186 -3.0382,5.74101 -6.5073,10.4051 -8.9257,15.33294 z"
         style="fill:#d40000;fill-opacity:1;display:inline" />
    </g>
  </g>
</svg>
