<?xml version="1.0" encoding="UTF-8" standalone="no"?>
<!-- Created with Inkscape (http://www.inkscape.org/) -->

<svg
   xmlns:dc="http://purl.org/dc/elements/1.1/"
   xmlns:cc="http://creativecommons.org/ns#"
   xmlns:rdf="http://www.w3.org/1999/02/22-rdf-syntax-ns#"
   xmlns:svg="http://www.w3.org/2000/svg"
   xmlns="http://www.w3.org/2000/svg"
   xmlns:sodipodi="http://sodipodi.sourceforge.net/DTD/sodipodi-0.dtd"
   xmlns:inkscape="http://www.inkscape.org/namespaces/inkscape"
   width="744.09448819"
   height="1052.3622047"
   id="svg4423"
   version="1.1"
   inkscape:version="0.48.1 r9760"
   sodipodi:docname="6H.svg">
  <sodipodi:namedview
     id="base"
     pagecolor="#ffffff"
     bordercolor="#666666"
     borderopacity="1.0"
     inkscape:pageopacity="0.0"
     inkscape:pageshadow="2"
     inkscape:zoom="0.49497474"
     inkscape:cx="40.510903"
     inkscape:cy="601.70801"
     inkscape:document-units="px"
     inkscape:current-layer="layer1"
     showgrid="false"
     inkscape:snap-global="true"
     inkscape:snap-bbox="true"
     inkscape:snap-page="true"
     inkscape:window-width="735"
     inkscape:window-height="925"
     inkscape:window-x="1105"
     inkscape:window-y="41"
     inkscape:window-maximized="0" />
  <defs
     id="defs4425" />
  <metadata
     id="metadata4428">
    <rdf:RDF>
      <cc:Work
         rdf:about="">
        <dc:format>image/svg+xml</dc:format>
        <dc:type
           rdf:resource="http://purl.org/dc/dcmitype/StillImage" />
        <dc:title />
      </cc:Work>
    </rdf:RDF>
  </metadata>
  <g
     id="layer1"
     inkscape:groupmode="layer"
     inkscape:label="6h">
    <g
       transform="translate(-2206.5344,198.14981)"
       id="g8954"
       style="display:inline">
      <g
         id="g8823">
        <g
           transform="translate(-4683.8753,2918.9368)"
           id="g8929">
          <rect
             ry="10.629921"
             rx="10.629921"
             style="fill:#ffffff;fill-opacity:1;stroke:#000000;stroke-width:0.99673343;stroke-miterlimit:4;stroke-opacity:1;stroke-dasharray:none;display:inline"
             id="rect6357"
             width="223.22835"
             height="311.81104"
             x="7150.8428"
             y="-2746.811" />
          <g
             id="g8673"
             transform="matrix(0.30106207,0,0,0.30106207,6829.277,-2295.2794)">
            <path
               style="fill:#d40000;fill-opacity:1;display:inline"
               d="m 1095.4738,-1380.2175 c -1.3564,-9.1251 -1.3347,-32.7019 -0.2195,-39.6679 3.4183,-21.3528 11.7323,-31.1191 25.6513,-34.3202 13.5143,-3.1079 32.5146,0.3517 36.6838,18.2089 l -11.3149,0.209 c -6.111,-12.0683 -21.5747,-8.8426 -30.2785,-3.5944 -6.9526,4.1923 -10.0928,21.6555 -8.7492,22.7304 -0.01,0 13.1436,-9.5567 23.5026,-8.8518 22.1491,2.2646 31.2808,21.1115 30.5093,38.9247 -0.6999,21.4228 -7.6228,38.5383 -31.0937,39.6808 -22.3148,-0.842 -32.5505,-12.7884 -34.6912,-33.3195 z m 55.0399,-5.6632 c 0.1233,-14.8653 -6.7551,-25.9841 -19.7618,-27.2118 -13.0066,-1.2276 -26.1193,11.2329 -25.2114,26.3816 0.9112,15.2016 6.9042,28.0069 22.6742,27.9359 16.9602,-0.076 22.2113,-16.5294 22.299,-27.1057 z"
               id="path7108"
               inkscape:connector-curvature="0"
               sodipodi:nodetypes="cssccacccccszsss" />
            <path
               sodipodi:nodetypes="cssccacccccszsss"
               inkscape:connector-curvature="0"
               id="path7161"
               d="m 1782.2047,-583.67043 c 1.3564,9.1251 1.3347,32.7019 0.2195,39.6679 -3.4183,21.3528 -11.7323,31.1191 -25.6513,34.3202 -13.5143,3.1079 -32.5146,-0.3517 -36.6838,-18.2089 l 11.3149,-0.209 c 6.111,12.0683 21.5747,8.8426 30.2785,3.5944 6.9526,-4.1923 10.0928,-21.6555 8.7492,-22.7304 0.01,0 -13.1436,9.5567 -23.5026,8.8518 -22.1491,-2.2646 -31.2808,-21.1115 -30.5093,-38.9247 0.6999,-21.4228 7.6228,-38.5383 31.0937,-39.6808 22.3148,0.842 32.5505,12.7884 34.6912,33.3195 z m -55.0399,5.6632 c -0.1233,14.8653 6.7551,25.9841 19.7618,27.2118 13.0066,1.2276 26.1193,-11.2329 25.2114,-26.3816 -0.9112,-15.2016 -6.9042,-28.0069 -22.6742,-27.9359 -16.9602,0.076 -22.2113,16.5294 -22.299,27.1057 z"
               style="fill:#d40000;fill-opacity:1;display:inline" />
          </g>
        </g>
      </g>
      <path
         style="fill:#d40000;fill-opacity:1;display:inline"
         d="m 2475.6178,231.49967 c -1.583,-3.47229 -1.7567,-9.4054 2.9711,-10.20801 3.5621,-0.45844 5.0117,1.1983 5.2999,3.74186 0.1422,0.74302 0.5617,0.7885 0.6948,-0.0583 0.2044,-2.60939 2.7872,-4.1326 4.8064,-3.74997 5.5266,0.9454 5.2039,7.02845 3.3985,11.15554 -2.7309,5.47946 -5.6006,8.93761 -8.245,14.45186 -3.0382,-5.74101 -6.5073,-10.4051 -8.9257,-15.33294 z"
         id="path8642"
         inkscape:connector-curvature="0"
         sodipodi:nodetypes="cccccccc" />
      <path
         sodipodi:nodetypes="ccccsccssc"
         inkscape:connector-curvature="0"
         id="path8530"
         d="m 2510.9058,200.48867 c 7.144,-0.4744 10.8684,5.62741 11.5952,10.43645 0.4334,0.76389 0.6707,0.54864 0.8369,-0.0423 0.3493,-6.17414 5.8749,-11.22017 10.9926,-10.53018 8.328,0.10829 13.3895,9.3754 11.9664,17.21876 -1.7385,9.58159 -6.8997,15.35109 -10.8078,21.29311 -4.4213,6.15238 -10.3727,15.0395 -12.2901,19.31683 0,0 -6.0483,-9.20452 -13.9172,-20.02959 -5.2618,-7.23851 -9.4731,-15.08233 -9.8651,-21.83538 -0.4479,-7.71548 2.7193,-14.63175 11.4891,-15.82765 z"
         style="fill:#d40000;fill-opacity:1;display:inline" />
      <path
         sodipodi:nodetypes="ccccsccssc"
         inkscape:connector-curvature="0"
         id="path8532"
         d="m 2622.4386,200.48867 c 7.144,-0.4744 10.8684,5.62741 11.5952,10.43645 0.4334,0.76389 0.6707,0.54864 0.8369,-0.0423 0.3493,-6.17414 5.8749,-11.22017 10.9926,-10.53018 8.328,0.10829 13.3895,9.3754 11.9664,17.21876 -1.7385,9.58159 -6.8997,15.35109 -10.8078,21.29311 -4.4213,6.15238 -10.3727,15.0395 -12.2901,19.31683 0,0 -6.0483,-9.20452 -13.9172,-20.02959 -5.2618,-7.23851 -9.4731,-15.08233 -9.8651,-21.83538 -0.4479,-7.71548 2.7193,-14.63175 11.4891,-15.82765 z"
         style="fill:#d40000;fill-opacity:1;display:inline" />
      <path
         sodipodi:nodetypes="ccccsccssc"
         inkscape:connector-curvature="0"
         id="path8534"
         d="m 2622.4386,299.38232 c 7.144,-0.4744 10.8684,5.62741 11.5952,10.43645 0.4334,0.76389 0.6707,0.54864 0.8369,-0.0423 0.3493,-6.17414 5.8749,-11.22017 10.9926,-10.53018 8.328,0.10829 13.3895,9.3754 11.9664,17.21876 -1.7385,9.58159 -6.8997,15.35109 -10.8078,21.29311 -4.4213,6.15238 -10.3727,15.0395 -12.2901,19.31683 0,0 -6.0483,-9.20452 -13.9172,-20.02959 -5.2618,-7.23851 -9.4731,-15.08233 -9.8651,-21.83538 -0.4479,-7.71548 2.7193,-14.63175 11.4891,-15.82765 z"
         style="fill:#d40000;fill-opacity:1;display:inline" />
      <path
         sodipodi:nodetypes="ccccsccssc"
         inkscape:connector-curvature="0"
         id="path8536"
         d="m 2510.9058,299.38232 c 7.144,-0.4744 10.8684,5.62741 11.5952,10.43645 0.4334,0.76389 0.6707,0.54864 0.8369,-0.0423 0.3493,-6.17414 5.8749,-11.22017 10.9926,-10.53018 8.328,0.10829 13.3895,9.3754 11.9664,17.21876 -1.7385,9.58159 -6.8997,15.35109 -10.8078,21.29311 -4.4213,6.15238 -10.3727,15.0395 -12.2901,19.31683 0,0 -6.0483,-9.20452 -13.9172,-20.02959 -5.2618,-7.23851 -9.4731,-15.08233 -9.8651,-21.83538 -0.4479,-7.71548 2.7193,-14.63175 11.4891,-15.82765 z"
         style="fill:#d40000;fill-opacity:1;display:inline" />
      <path
         sodipodi:nodetypes="ccccsccssc"
         inkscape:connector-curvature="0"
         id="path8592"
         d="m 2510.9058,455.47427 c 7.144,0.4744 10.8684,-5.62741 11.5952,-10.43645 0.4334,-0.76389 0.6707,-0.54864 0.8369,0.0423 0.3493,6.17414 5.8749,11.22017 10.9926,10.53018 8.328,-0.10829 13.3895,-9.3754 11.9664,-17.21876 -1.7385,-9.58159 -6.8997,-15.35109 -10.8078,-21.29311 -4.4213,-6.15238 -10.3727,-15.0395 -12.2901,-19.31683 0,0 -6.0483,9.20452 -13.9172,20.02959 -5.2618,7.23851 -9.4731,15.08233 -9.8651,21.83538 -0.4479,7.71548 2.7193,14.63175 11.4891,15.82765 z"
         style="fill:#d40000;fill-opacity:1;display:inline" />
      <path
         sodipodi:nodetypes="ccccsccssc"
         inkscape:connector-curvature="0"
         id="path8594"
         d="m 2622.4386,455.47427 c 7.144,0.4744 10.8684,-5.62741 11.5952,-10.43645 0.4334,-0.76389 0.6707,-0.54864 0.8369,0.0423 0.3493,6.17414 5.8749,11.22017 10.9926,10.53018 8.328,-0.10829 13.3895,-9.3754 11.9664,-17.21876 -1.7385,-9.58159 -6.8997,-15.35109 -10.8078,-21.29311 -4.4213,-6.15238 -10.3727,-15.0395 -12.2901,-19.31683 0,0 -6.0483,9.20452 -13.9172,20.02959 -5.2618,7.23851 -9.4731,15.08233 -9.8651,21.83538 -0.4479,7.71548 2.7193,14.63175 11.4891,15.82765 z"
         style="fill:#d40000;fill-opacity:1;display:inline" />
      <path
         sodipodi:nodetypes="cccccccc"
         inkscape:connector-curvature="0"
         id="path8658"
         d="m 2664.433,422.35735 c -1.583,3.47229 -1.7567,9.4054 2.9711,10.20801 3.5621,0.45844 5.0117,-1.1983 5.2999,-3.74186 0.1422,-0.74302 0.5617,-0.7885 0.6948,0.0583 0.2044,2.60939 2.7872,4.1326 4.8064,3.74997 5.5266,-0.9454 5.2039,-7.02845 3.3985,-11.15554 -2.7309,-5.47946 -5.6006,-8.93761 -8.245,-14.45186 -3.0382,5.74101 -6.5073,10.4051 -8.9257,15.33294 z"
         style="fill:#d40000;fill-opacity:1;display:inline" />
    </g>
  </g>
</svg>
