<?xml version="1.0" encoding="UTF-8" standalone="no"?>
<!-- Created with Inkscape (http://www.inkscape.org/) -->

<svg
   xmlns:dc="http://purl.org/dc/elements/1.1/"
   xmlns:cc="http://creativecommons.org/ns#"
   xmlns:rdf="http://www.w3.org/1999/02/22-rdf-syntax-ns#"
   xmlns:svg="http://www.w3.org/2000/svg"
   xmlns="http://www.w3.org/2000/svg"
   xmlns:sodipodi="http://sodipodi.sourceforge.net/DTD/sodipodi-0.dtd"
   xmlns:inkscape="http://www.inkscape.org/namespaces/inkscape"
   width="744.09448819"
   height="1052.3622047"
   id="svg4423"
   version="1.1"
   inkscape:version="0.48.1 r9760"
   sodipodi:docname="7H.svg">
  <sodipodi:namedview
     id="base"
     pagecolor="#ffffff"
     bordercolor="#666666"
     borderopacity="1.0"
     inkscape:pageopacity="0.0"
     inkscape:pageshadow="2"
     inkscape:zoom="0.69999999"
     inkscape:cx="133.5404"
     inkscape:cy="490.34926"
     inkscape:document-units="px"
     inkscape:current-layer="layer1"
     showgrid="false"
     inkscape:snap-global="true"
     inkscape:snap-bbox="true"
     inkscape:snap-page="true"
     inkscape:window-width="735"
     inkscape:window-height="925"
     inkscape:window-x="29"
     inkscape:window-y="29"
     inkscape:window-maximized="0" />
  <defs
     id="defs4425" />
  <metadata
     id="metadata4428">
    <rdf:RDF>
      <cc:Work
         rdf:about="">
        <dc:format>image/svg+xml</dc:format>
        <dc:type
           rdf:resource="http://purl.org/dc/dcmitype/StillImage" />
        <dc:title />
      </cc:Work>
    </rdf:RDF>
  </metadata>
  <g
     id="layer1"
     inkscape:groupmode="layer"
     inkscape:label="7H">
    <g
       transform="translate(-1090.3923,-113.66123)"
       id="g9031"
       style="display:inline">
      <g
         id="g8838">
        <g
           transform="translate(-4683.8753,2918.9368)"
           id="g8853">
          <rect
             ry="10.629921"
             rx="10.629921"
             style="fill:#ffffff;fill-opacity:1;stroke:#000000;stroke-width:0.99000001;stroke-miterlimit:3.79999995;stroke-opacity:1;stroke-dasharray:none;display:inline"
             id="rect6359"
             width="223.22835"
             height="311.81104"
             x="6034.7007"
             y="-2435" />
          <g
             id="g8660"
             transform="matrix(0.30106207,0,0,0.30106207,5449.5822,-1980.8821)">
            <path
               style="fill:#d40000;fill-opacity:1;display:inline"
               d="m 1984.5104,-1353.8984 c 7.0822,-36.8355 14.6449,-64.4729 34.4785,-94.4913 l -40.3064,0 0,12.9215 -10.7143,0 0,-24.3501 58.9719,0 7.2692,11.4286 c -21.0637,22.5765 -40.3507,95.5559 -36.9337,94.4913 z"
               id="path7110"
               inkscape:connector-curvature="0"
               sodipodi:nodetypes="cccccccccc" />
            <path
               sodipodi:nodetypes="cccccccccc"
               inkscape:connector-curvature="0"
               id="path7126"
               d="m 2643.988,-627.17059 c -7.0822,36.8355 -14.6449,64.4729 -34.4785,94.4913 l 40.3064,0 0,-12.9215 10.7143,0 0,24.3501 -58.9719,0 -7.2692,-11.4286 c 21.0637,-22.5765 40.3507,-95.5559 36.9337,-94.4913 z"
               style="fill:#d40000;fill-opacity:1;display:inline" />
          </g>
        </g>
      </g>
      <path
         style="fill:#d40000;fill-opacity:1;display:inline"
         d="m 1359.6533,545.89697 c -1.583,-3.47229 -1.7567,-9.4054 2.9711,-10.20801 3.5621,-0.45844 5.0117,1.1983 5.2999,3.74186 0.1422,0.74302 0.5617,0.7885 0.6948,-0.0583 0.2044,-2.60939 2.7872,-4.1326 4.8064,-3.74997 5.5266,0.9454 5.2039,7.02845 3.3985,11.15554 -2.7309,5.47946 -5.6006,8.93761 -8.245,14.45186 -3.0382,-5.74101 -6.5073,-10.4051 -8.9257,-15.33294 z"
         id="path8632"
         inkscape:connector-curvature="0"
         sodipodi:nodetypes="cccccccc" />
      <path
         sodipodi:nodetypes="ccccsccssc"
         inkscape:connector-curvature="0"
         id="path8538"
         d="m 1394.0124,513.74407 c 7.144,-0.4744 10.8684,5.62741 11.5952,10.43645 0.4334,0.76389 0.6707,0.54864 0.8369,-0.0423 0.3493,-6.17414 5.8749,-11.22017 10.9926,-10.53018 8.328,0.10829 13.3895,9.3754 11.9664,17.21876 -1.7385,9.58159 -6.8997,15.35109 -10.8078,21.29311 -4.4213,6.15238 -10.3727,15.0395 -12.2901,19.31683 0,0 -6.0483,-9.20452 -13.9172,-20.02959 -5.2618,-7.23851 -9.4731,-15.08233 -9.8651,-21.83538 -0.4479,-7.71548 2.7193,-14.63175 11.4891,-15.82765 z"
         style="fill:#d40000;fill-opacity:1;display:inline" />
      <path
         sodipodi:nodetypes="ccccsccssc"
         inkscape:connector-curvature="0"
         id="path8540"
         d="m 1505.5452,513.74407 c 7.144,-0.4744 10.8684,5.62741 11.5952,10.43645 0.4334,0.76389 0.6707,0.54864 0.8369,-0.0423 0.3493,-6.17414 5.8749,-11.22017 10.9926,-10.53018 8.328,0.10829 13.3895,9.3754 11.9664,17.21876 -1.7385,9.58159 -6.8997,15.35109 -10.8078,21.29311 -4.4213,6.15238 -10.3727,15.0395 -12.2901,19.31683 0,0 -6.0483,-9.20452 -13.9172,-20.02959 -5.2618,-7.23851 -9.4731,-15.08233 -9.8651,-21.83538 -0.4479,-7.71548 2.7193,-14.63175 11.4891,-15.82765 z"
         style="fill:#d40000;fill-opacity:1;display:inline" />
      <path
         sodipodi:nodetypes="ccccsccssc"
         inkscape:connector-curvature="0"
         id="path8542"
         d="m 1450.4463,563.86829 c 7.144,-0.4744 10.8684,5.62741 11.5952,10.43645 0.4334,0.76389 0.6707,0.54864 0.8369,-0.0423 0.3493,-6.17414 5.8749,-11.22017 10.9926,-10.53018 8.328,0.10829 13.3895,9.3754 11.9664,17.21876 -1.7385,9.58159 -6.8997,15.35109 -10.8078,21.29311 -4.4213,6.15238 -10.3727,15.0395 -12.2901,19.31683 0,0 -6.0483,-9.20452 -13.9172,-20.02959 -5.2618,-7.23851 -9.4731,-15.08233 -9.8651,-21.83538 -0.4479,-7.71548 2.7193,-14.63175 11.4891,-15.82765 z"
         style="fill:#d40000;fill-opacity:1;display:inline" />
      <path
         sodipodi:nodetypes="ccccsccssc"
         inkscape:connector-curvature="0"
         id="path8544"
         d="m 1394.0124,613.99251 c 7.144,-0.4744 10.8684,5.62741 11.5952,10.43645 0.4334,0.76389 0.6707,0.54864 0.8369,-0.0423 0.3493,-6.17414 5.8749,-11.22017 10.9926,-10.53018 8.328,0.10829 13.3895,9.3754 11.9664,17.21876 -1.7385,9.58159 -6.8997,15.35109 -10.8078,21.29311 -4.4213,6.15238 -10.3727,15.0395 -12.2901,19.31683 0,0 -6.0483,-9.20452 -13.9172,-20.02959 -5.2618,-7.23851 -9.4731,-15.08233 -9.8651,-21.83538 -0.4479,-7.71548 2.7193,-14.63175 11.4891,-15.82765 z"
         style="fill:#d40000;fill-opacity:1;display:inline" />
      <path
         sodipodi:nodetypes="ccccsccssc"
         inkscape:connector-curvature="0"
         id="path8546"
         d="m 1505.5452,613.99251 c 7.144,-0.4744 10.8684,5.62741 11.5952,10.43645 0.4334,0.76389 0.6707,0.54864 0.8369,-0.0423 0.3493,-6.17414 5.8749,-11.22017 10.9926,-10.53018 8.328,0.10829 13.3895,9.3754 11.9664,17.21876 -1.7385,9.58159 -6.8997,15.35109 -10.8078,21.29311 -4.4213,6.15238 -10.3727,15.0395 -12.2901,19.31683 0,0 -6.0483,-9.20452 -13.9172,-20.02959 -5.2618,-7.23851 -9.4731,-15.08233 -9.8651,-21.83538 -0.4479,-7.71548 2.7193,-14.63175 11.4891,-15.82765 z"
         style="fill:#d40000;fill-opacity:1;display:inline" />
      <path
         sodipodi:nodetypes="cccccccc"
         inkscape:connector-curvature="0"
         id="path8666"
         d="m 1548.4685,736.75465 c -1.583,3.47229 -1.7567,9.4054 2.9711,10.20801 3.5621,0.45844 5.0117,-1.1983 5.2999,-3.74186 0.1422,-0.74302 0.5617,-0.7885 0.6948,0.0583 0.2044,2.60939 2.7872,4.1326 4.8064,3.74997 5.5266,-0.9454 5.2039,-7.02845 3.3985,-11.15554 -2.7309,-5.47946 -5.6006,-8.93761 -8.245,-14.45186 -3.0382,5.74101 -6.5073,10.4051 -8.9257,15.33294 z"
         style="fill:#d40000;fill-opacity:1;display:inline" />
      <path
         sodipodi:nodetypes="ccccsccssc"
         inkscape:connector-curvature="0"
         id="path8620"
         d="m 1505.5452,770.08447 c 7.144,0.4744 10.8684,-5.62741 11.5952,-10.43645 0.4334,-0.76389 0.6707,-0.54864 0.8369,0.0423 0.3493,6.17414 5.8749,11.22017 10.9926,10.53018 8.328,-0.10829 13.3895,-9.3754 11.9664,-17.21876 -1.7385,-9.58159 -6.8997,-15.35109 -10.8078,-21.29311 -4.4213,-6.15238 -10.3727,-15.0395 -12.2901,-19.31683 0,0 -6.0483,9.20452 -13.9172,20.02959 -5.2618,7.23851 -9.4731,15.08233 -9.8651,21.83538 -0.4479,7.71548 2.7193,14.63175 11.4891,15.82765 z"
         style="fill:#d40000;fill-opacity:1;display:inline" />
      <path
         sodipodi:nodetypes="ccccsccssc"
         inkscape:connector-curvature="0"
         id="path8622"
         d="m 1394.0124,770.08447 c 7.144,0.4744 10.8684,-5.62741 11.5952,-10.43645 0.4334,-0.76389 0.6707,-0.54864 0.8369,0.0423 0.3493,6.17414 5.8749,11.22017 10.9926,10.53018 8.328,-0.10829 13.3895,-9.3754 11.9664,-17.21876 -1.7385,-9.58159 -6.8997,-15.35109 -10.8078,-21.29311 -4.4213,-6.15238 -10.3727,-15.0395 -12.2901,-19.31683 0,0 -6.0483,9.20452 -13.9172,20.02959 -5.2618,7.23851 -9.4731,15.08233 -9.8651,21.83538 -0.4479,7.71548 2.7193,14.63175 11.4891,15.82765 z"
         style="fill:#d40000;fill-opacity:1;display:inline" />
    </g>
  </g>
</svg>
