<?xml version="1.0"?><svg width="1600" height="1200" xmlns="http://www.w3.org/2000/svg">
 <title>black spade</title>

 <g>
  <title>Layer 1</title>
  <g id="svg_1">
   <g id="g2005" transform="matrix(35.9854, 0, 0, 35.9854, -2550.64, -3750.97)">
    <path d="m94.389107,137.469727c-3.4795,0.00293 -5.30957,-3.707031 -6.269516,-7.416016c-0.960953,-3.711914 -1.051773,-7.423828 -1.051773,-7.423828l-1.775391,-0.017586c0,0 -0.333008,14.847664 -7.290527,14.853523l16.387207,0.003906l0,0z" id="path2007" stroke="#88a3ce" fill="#000000" stroke-width="0"/>
   </g>
   <path d="m1057.820557,661.767334c-1.0896,-260.612762 -391.270752,-449.641327 -505.83374,-655.889714c-114.527374,206.248387 -504.708706,395.276951 -505.815426,655.889714c-0.50956,123.067017 113.245205,222.764832 252.9342,222.764832c139.654144,0 252.881226,-99.697815 252.881226,-222.764832c0,123.067017 113.263062,222.764832 252.952026,222.764832c139.689331,0 252.881714,-99.697815 252.881714,-222.764832l0,0z" id="path2009" stroke="#88a3ce" fill="#000000" stroke-width="0"/>
  </g>
 </g>
</svg>